<svg xmlns="http://www.w3.org/2000/svg" width="88.381" height="77.5" viewBox="0 0 88.381 77.5">
  <g id="Group_678" data-name="Group 678" transform="translate(-135.75 -348.75)">
    <g id="Group_676" data-name="Group 676" transform="translate(135.8 348.7)">
      <path id="Path_1245" data-name="Path 1245" d="M.2,5.9V70.5c0,3.5,3.3,6.8,7.4,6.8H69.4a7.364,7.364,0,0,0,7.5-6.8V66.7a.923.923,0,0,1,.9-1h9.3a1.183,1.183,0,0,0,.7-1.9L77.5,52.5a2.792,2.792,0,0,1-.6-1.8V5.9S76.9.3,71.6.3c-.1,0,0,7.5,0,7.5H65.8V3.4h2.4V.3H59.5V7.8H54.1V3.4h2V.3H47.8V7.8H42.4V3.4h2V.3H35.7V7.8H30.8V3.4h1.6V.3H24.1V7.8H19.2V3.4h1.5V.3H11.9V7.8H7.6V3.4H8.7V.3H5.8A5.591,5.591,0,0,0,.2,5.9Z" fill="#fff" stroke="#636e74" stroke-miterlimit="10" stroke-width="0.5"/>
    </g>
    <g id="Group_677" data-name="Group 677" transform="translate(149.533 369.51)">
      <path id="Path_1246" data-name="Path 1246" d="M.6,8.9C-.4,6.8,4.4.3,10,.6c5.1.3,9.1,6.5,8.1,8.5-.3.6-1.1.8-1.2.9-1.8.4-2.9-3-5.8-3.4A17.9,17.9,0,0,0,8,6.7c-2.9.5-3.7,3.6-5.7,3.2A2.811,2.811,0,0,1,.6,8.9Z" fill="#636e74" stroke="#636e74" stroke-miterlimit="10" stroke-width="1"/>
      <path id="Path_1247" data-name="Path 1247" d="M30.4,8.8C29.4,6.7,34.2.2,39.8.5,44.9.8,48.9,7,47.9,9c-.3.6-1.1.8-1.2.9C45,10.4,43.9,7,41,6.6a8.3,8.3,0,0,0-3.1.1c-2.9.5-3.7,3.6-5.7,3.2C32,9.8,30.8,9.6,30.4,8.8Z" fill="#636e74" stroke="#636e74" stroke-miterlimit="10" stroke-width="1"/>
    </g>
    <path id="Path_1248" data-name="Path 1248" d="M39.8,3.4c2.4,4.9-7.3,18.7-19.4,18.7C8.1,22.1-1.5,8.4.9,3.4,2.4.4,8.4.5,20.6.5,32.4.5,38.3.5,39.8,3.4Z" transform="translate(153.47 393.5)" fill="#636e74" stroke="#636e74" stroke-miterlimit="10" stroke-width="1"/>
  </g>
</svg>
